<svg viewBox="0 0 28 28" fill="none" xmlns="http://www.w3.org/2000/svg" x="0" y="0"><g id="Icon">
<path id="Vector" d="M11.667,2.3333v2.3334" stroke="white" stroke-width="2.33333" stroke-linecap="round" stroke-linejoin="round"/>
<path id="Vector_2" d="M16.333,2.3333v2.3334" stroke="white" stroke-width="2.33333" stroke-linecap="round" stroke-linejoin="round"/>
<path id="Vector_3" d="M18.667,9.3333c0.309,0 0.606,0.123 0.825,0.3417c0.218,0.2188 0.341,0.5156 0.341,0.825v9.3333c0,1.2377 -0.491,2.4247 -1.367,3.2999c-0.875,0.8751 -2.062,1.3668 -3.299,1.3668h-7c-1.238,0 -2.425,-0.4917 -3.3,-1.3668c-0.875,-0.8752 -1.367,-2.0622 -1.367,-3.2999v-9.3333c0,-0.3094 0.123,-0.6062 0.342,-0.825c0.219,-0.2187 0.515,-0.3417 0.825,-0.3417h16.333c1.238,0 2.425,0.4917 3.3,1.3669c0.875,0.8751 1.367,2.0621 1.367,3.2998c0,1.2377 -0.492,2.4247 -1.367,3.2998c-0.875,0.8752 -2.062,1.3669 -3.3,1.3669h-1.167" stroke="white" stroke-width="2.33333" stroke-linecap="round" stroke-linejoin="round"/>
<path id="Vector_4" d="M7,2.3333v2.3334" stroke="white" stroke-width="2.33333" stroke-linecap="round" stroke-linejoin="round"/>
</g></svg>