<svg viewBox="0 0 17.2656 21" fill="none" xmlns="http://www.w3.org/2000/svg" x="0" y="0"><defs><clipPath id="clip2_6_2">
<rect width="17.2656" height="21" fill="white" transform="translate(0, 0)"/>
</clipPath></defs><g id="Icon_7" clip-path="url(#clip2_6_2)">
<path id="Vector_20" d="M7.194,3.306v1.439" stroke="#0A0A0A" stroke-width="1.4388" stroke-linecap="round" stroke-linejoin="round"/>
<path id="Vector_21" d="M10.072,3.306v1.439" stroke="#0A0A0A" stroke-width="1.4388" stroke-linecap="round" stroke-linejoin="round"/>
<path id="Vector_22" d="M11.51,7.622c0.191,0 0.374,0.076 0.509,0.211c0.135,0.135 0.211,0.318 0.211,0.509v5.755c0,0.763 -0.303,1.495 -0.843,2.035c-0.54,0.539 -1.272,0.843 -2.035,0.843h-4.316c-0.763,0 -1.495,-0.304 -2.035,-0.843c-0.54,-0.54 -0.843,-1.272 -0.843,-2.035v-5.755c0,-0.191 0.076,-0.374 0.211,-0.509c0.135,-0.135 0.318,-0.211 0.509,-0.211h10.071c0.763,0 1.495,0.304 2.035,0.843c0.54,0.54 0.843,1.272 0.843,2.035c0,0.763 -0.303,1.495 -0.843,2.035c-0.54,0.539 -1.272,0.843 -2.035,0.843h-0.719" stroke="#0A0A0A" stroke-width="1.4388" stroke-linecap="round" stroke-linejoin="round"/>
<path id="Vector_23" d="M4.316,3.306v1.439" stroke="#0A0A0A" stroke-width="1.4388" stroke-linecap="round" stroke-linejoin="round"/>
</g></svg>