<svg viewBox="0 0 14 14" fill="none" xmlns="http://www.w3.org/2000/svg" x="0" y="0"><g id="Icon_11">
<path id="Vector_30" d="M9.042,4.375l1.341,1.342c0.109,0.107 0.256,0.166 0.409,0.166c0.152,0 0.299,-0.059 0.408,-0.166l1.225,-1.225c0.107,-0.109 0.167,-0.256 0.167,-0.409c0,-0.152 -0.06,-0.299 -0.167,-0.408l-1.342,-1.342" stroke="#00A63E" stroke-width="1.16667" stroke-linecap="round" stroke-linejoin="round"/>
<path id="Vector_31" d="M12.25,1.167l-5.6,5.6" stroke="#00A63E" stroke-width="1.16667" stroke-linecap="round" stroke-linejoin="round"/>
<path id="Vector_32" d="M4.375,12.25c1.772,0 3.208,-1.436 3.208,-3.208c0,-1.772 -1.436,-3.209 -3.208,-3.209c-1.772,0 -3.208,1.437 -3.208,3.209c0,1.772 1.436,3.208 3.208,3.208z" stroke="#00A63E" stroke-width="1.16667" stroke-linecap="round" stroke-linejoin="round"/>
</g></svg>