<svg viewBox="0 0 10.5 10.5" fill="none" xmlns="http://www.w3.org/2000/svg" x="0" y="0"><g id="Icon_4">
<path id="Vector_11" d="M6.7816,3.281l1.006,1.007c0.082,0.08 0.192,0.125 0.306,0.125c0.115,0 0.225,-0.045 0.306,-0.125l0.919,-0.919c0.08,-0.082 0.125,-0.192 0.125,-0.307c0,-0.114 -0.045,-0.224 -0.125,-0.306l-1.006,-1.006" stroke="#0A0A0A" stroke-width="0.875" stroke-linecap="round" stroke-linejoin="round"/>
<path id="Vector_12" d="M9.1876,0.875l-4.2,4.2" stroke="#0A0A0A" stroke-width="0.875" stroke-linecap="round" stroke-linejoin="round"/>
<path id="Vector_13" d="M3.2816,9.188c1.329,0 2.406,-1.078 2.406,-2.407c0,-1.329 -1.077,-2.406 -2.406,-2.406c-1.329,0 -2.407,1.077 -2.407,2.406c0,1.329 1.078,2.407 2.407,2.407z" stroke="#0A0A0A" stroke-width="0.875" stroke-linecap="round" stroke-linejoin="round"/>
</g></svg>