<svg viewBox="0 0 10.5 12.8353" fill="none" xmlns="http://www.w3.org/2000/svg" x="0" y="0"><path id="Vector_27" d="M9.917,7c0,2.917 -2.042,4.375 -4.469,5.221c-0.127,0.043 -0.265,0.041 -0.391,-0.006c-2.432,-0.84 -4.474,-2.298 -4.474,-5.215v-4.083c0,-0.155 0.062,-0.303 0.171,-0.413c0.11,-0.109 0.258,-0.17 0.413,-0.17c1.166,0 2.625,-0.7 3.64,-1.587c0.123,-0.106 0.28,-0.164 0.443,-0.164c0.163,0 0.32,0.058 0.443,0.164c1.021,0.892 2.474,1.587 3.64,1.587c0.155,0 0.303,0.061 0.413,0.17c0.109,0.11 0.171,0.258 0.171,0.413z" stroke="#155DFC" stroke-width="1.16667" stroke-linecap="round" stroke-linejoin="round"/></svg>