<svg viewBox="0 0 21 21" fill="none" xmlns="http://www.w3.org/2000/svg" x="0" y="0"><g id="Icon_3">
<path id="Vector_7" d="M14,18.375v-1.75c0,-0.928 -0.369,-1.818 -1.025,-2.475c-0.657,-0.656 -1.547,-1.025 -2.475,-1.025h-5.25c-0.928,0 -1.818,0.369 -2.475,1.025c-0.656,0.657 -1.025,1.547 -1.025,2.475v1.75" stroke="#0A0A0A" stroke-width="1.75" stroke-linecap="round" stroke-linejoin="round"/>
<path id="Vector_8" d="M7.875,9.625c1.933,0 3.5,-1.567 3.5,-3.5c0,-1.933 -1.567,-3.5 -3.5,-3.5c-1.933,0 -3.5,1.567 -3.5,3.5c0,1.933 1.567,3.5 3.5,3.5z" stroke="#0A0A0A" stroke-width="1.75" stroke-linecap="round" stroke-linejoin="round"/>
<path id="Vector_9" d="M19.25,18.375v-1.75c-0.001,-0.775 -0.259,-1.529 -0.734,-2.142c-0.475,-0.613 -1.14,-1.05 -1.891,-1.244" stroke="#0A0A0A" stroke-width="1.75" stroke-linecap="round" stroke-linejoin="round"/>
<path id="Vector_10" d="M14,2.739c0.753,0.193 1.42,0.63 1.897,1.244c0.476,0.614 0.735,1.369 0.735,2.146c0,0.778 -0.259,1.533 -0.735,2.146c-0.477,0.614 -1.144,1.052 -1.897,1.245" stroke="#0A0A0A" stroke-width="1.75" stroke-linecap="round" stroke-linejoin="round"/>
</g></svg>